<?xml version="1.0" encoding="utf-8"?>
<svg version="1.1" id="Layer_1"
xmlns="http://www.w3.org/2000/svg"
xmlns:xlink="http://www.w3.org/1999/xlink"
width="527px" height="140px"
xml:space="preserve">
<g id="PathID_25" transform="matrix(2.11775, 0, 0, 1.92997, 180.9, 73)" opacity="1">
<path style="fill:#162EAE;fill-opacity:1" d="M35.85 -0.75Q35.85 -0.25 35.6 -0.1L34.9 0Q33.35 0.15 30.55 0.15Q26.6 0.15 25.9 0Q25.25 -0.15 25.25 -0.65Q25.25 -2.65 25.45 -6.6Q25.65 -10.55 25.65 -12.55Q25.65 -13.5 25.1 -13.7Q24.25 -13.9 19.1 -13.9Q13.9 -13.9 13 -13.7Q12.5 -13.55 12.5 -12.55L12.6 -6.7L12.75 -0.85Q12.75 -0.1 12.05 0Q11.25 0.15 7.3 0.15Q3.95 0.15 3 0Q2.3 -0.1 2.3 -0.75Q2.3 -3.45 2.55 -8.9Q2.85 -14.35 2.85 -17.1Q2.85 -20 2.6 -25.8Q2.35 -31.6 2.35 -34.55Q2.35 -35.1 2.85 -35.1L5.2 -35L7.55 -34.95L9.95 -35L12.4 -35.1Q12.85 -35.1 12.85 -34.65Q12.85 -32.75 12.55 -29Q12.25 -25.3 12.25 -23.4Q12.25 -22.55 12.7 -22.4Q13.35 -22.2 19.05 -22.2Q24.4 -22.2 25.25 -22.4Q25.85 -22.55 25.85 -23.4Q25.85 -25.2 25.65 -28.85L25.5 -34.3Q25.5 -35.1 26.1 -35.1L28.3 -35L30.6 -34.95L32.8 -35L35.05 -35.1Q35.8 -35.1 35.8 -34.5Q35.8 -31.6 35.55 -25.8Q35.3 -20 35.3 -17.1Q35.3 -14.35 35.55 -8.9Q35.85 -3.45 35.85 -0.75" />
</g>
<g id="PathID_26" transform="matrix(2.11775, 0, 0, 1.92997, 180.9, 73)" opacity="1">
</g>
<g id="PathID_27" transform="matrix(2.11775, 0, 0, 1.92997, 261.5, 73)" opacity="1">
<path style="fill:#162EAE;fill-opacity:1" d="M16.45 0.1Q13.05 0.1 12.55 0Q12.1 -0.1 11.8 -0.7L6.05 -12Q1.55 -21.05 1.55 -22.25Q1.55 -24.25 1.7 -28.2Q1.85 -32.15 1.85 -34.15Q1.85 -35.1 2.35 -35.1L6.9 -34.95L11.45 -34.85Q12.1 -34.85 12.1 -34.3Q12.1 -32.25 11.8 -28.2Q11.5 -24.15 11.5 -22.1Q11.5 -20.55 16.55 -11.05Q17.95 -13.5 19.7 -17.1Q22.05 -21.95 22.05 -23.05L22 -28.55L21.95 -34.05Q21.95 -34.75 22.15 -34.8L22.95 -34.8L27.15 -34.95L31.3 -35.1Q32.1 -35.1 32.1 -34.45L32 -28.65L31.95 -22.8Q31.95 -21.25 27 -11.4Q25.05 -7.85 21.35 -0.7Q21.1 -0.15 21 -0.1L20.4 0Q19.1 0.1 16.45 0.1" />
</g>
<g id="PathID_28" transform="matrix(2.11775, 0, 0, 1.92997, 261.5, 73)" opacity="1">
</g>
<g id="PathID_29" transform="matrix(2.11775, 0, 0, 1.92997, 332.2, 73)" opacity="1">
<path style="fill:#162EAE;fill-opacity:1" d="M26.65 -27.45Q26.65 -26.95 26.1 -26.95Q25.15 -26.95 18.6 -27.35L18.45 -18.5Q18.45 -15.55 18.7 -9.6Q18.95 -3.65 18.95 -0.7Q18.95 -0.25 18.7 -0.1L18 0Q16.5 0.2 13.6 0.2Q10.35 0.2 9.05 0Q8.35 -0.1 8.35 -0.75Q8.35 -3.7 8.6 -9.6Q8.85 -15.5 8.85 -18.45L8.65 -27.2Q3.6 -26.7 0.65 -26.7Q0.25 -26.7 0.25 -26.95Q0.25 -27.25 0.6 -28.85L1.05 -31L1.25 -33.35Q1.4 -35.2 1.85 -35.2L2.2 -35.2Q6.25 -34.65 14.15 -34.65Q16.4 -34.65 22.45 -35.1L25.75 -35.4Q26.25 -35.4 26.3 -35.3Q26.4 -35.25 26.45 -34.85L26.4 -32.95L26.35 -31.1Q26.35 -30.45 26.5 -29.25L26.65 -27.45" />
</g>
<g id="PathID_30" transform="matrix(2.11775, 0, 0, 1.92997, 332.2, 73)" opacity="1">
</g>
<g id="PathID_31" transform="matrix(2.11775, 0, 0, 1.92997, 389.5, 73)" opacity="1">
<path style="fill:#162EAE;fill-opacity:1" d="M27.9 -7.75Q27.9 -6.7 27.45 -3.8Q27 -0.7 26.65 -0.1Q26.35 0.4 25.8 0.4L25.05 0.3Q23.25 0.05 14.4 0.05L8.7 0L3 0Q2.2 0 2.2 -0.7Q2.2 -3.5 2.5 -9.1Q2.85 -14.75 2.85 -17.55Q2.85 -20.4 2.55 -28.15L2.25 -34.15L2.25 -34.5Q2.2 -35.1 2.85 -35.1L8.4 -35L13.95 -34.9L19.4 -35L24.95 -35.1Q26.25 -35.1 26.45 -34.1L26.8 -30.6Q27.1 -27.7 27.1 -27.05Q27.1 -26.55 26.6 -26.55L26.05 -26.55Q19.45 -27.15 14.15 -27.15Q12.85 -27.15 12.55 -26.5Q12.45 -26.2 12.45 -24.55Q12.45 -22.85 12.9 -22.3Q13.35 -21.85 14.55 -21.85L15.5 -21.85L16.7 -21.9Q19.85 -21.9 23.05 -22.1L24.45 -22.2Q25.3 -22.35 25.8 -22.35Q26.4 -22.35 26.4 -21.75Q26.4 -22.3 25.95 -17.9Q25.75 -15.9 25.75 -13.9Q25.75 -13.4 25 -13.4L22.75 -13.65Q21.35 -13.8 16.3 -13.8L13.65 -13.8Q12.6 -13.8 12.45 -13.3L12.45 -11.75Q12.45 -9.85 12.65 -9.3Q13.1 -8.35 15.85 -8.2L19.5 -8.2Q20.8 -8.2 23.4 -8.45Q26.05 -8.7 27.35 -8.7Q27.9 -8.7 27.9 -7.75" />
</g>
<g id="PathID_32" transform="matrix(2.11775, 0, 0, 1.92997, 389.5, 73)" opacity="1">
</g>
<g id="PathID_33" transform="matrix(2.11775, 0, 0, 1.92997, 450.75, 73)" opacity="1">
<path style="fill:#162EAE;fill-opacity:1" d="M33.1 -1.35Q33.1 -0.3 32.15 0Q31.4 0.25 28.2 0.25Q25.1 0.25 23.7 0Q23 -0.1 22.8 -0.25Q22.6 -0.4 22.25 -0.95L18.65 -7.65Q15.7 -13.05 15.1 -13.6Q12.45 -12.6 12.45 -12.2L12.6 -6.5Q12.75 -2.75 12.75 -0.85Q12.75 -0.1 12.05 0Q10.75 0.2 7.3 0.2Q4.05 0.2 3 0Q2.3 -0.15 2.3 -0.75Q2.3 -3.45 2.55 -8.9Q2.85 -14.35 2.85 -17.1Q2.85 -20 2.6 -25.8Q2.35 -31.6 2.35 -34.55Q2.35 -35.1 2.85 -35.1L5.2 -35L7.55 -34.95L9.9 -35L12.3 -35.1Q12.75 -35.1 12.75 -34.6Q12.75 -32.75 12.55 -29Q12.35 -25.3 12.35 -23.45Q12.35 -21.3 13.5 -21.3Q16.45 -21.3 18.1 -22.9Q19.3 -24.1 20.55 -27.3Q21.35 -29.7 23.2 -34.45Q23.45 -35.1 24.3 -35.1L26.25 -35L28.25 -34.95L30.25 -35L32.25 -35.05Q32.85 -35.05 32.85 -34.45Q32.85 -33.6 31.8 -30.4Q28.7 -20.95 24.7 -18.6Q23.9 -18.1 23.9 -17.8L28.5 -10.3Q33.1 -2.8 33.1 -1.35" />
</g>
<g id="PathID_34" transform="matrix(2.11775, 0, 0, 1.92997, 450.75, 73)" opacity="1">
</g>
<g id="PathID_35" transform="matrix(-0.420549, -1.17956, 1.50457, -5.37008e-008, 93.7, 69.65)" opacity="1">
<path style="fill:#162EAE;fill-opacity:1" d="M38.6 -6.45Q47.75 -6.5 53.85 -8.45L56 -9.2L56 18.25Q48.1 19.95 38.65 19.95L38.6 19.95Q19.2 19.95 -5.2 12.85Q-27.2 6.5 -42.55 6.5Q-51.1 6.55 -56 8.35L-56 -18.8L-42.55 -19.9Q-23.2 -19.85 2.1 -12.5Q23 -6.45 38.6 -6.45" />
</g>
<g id="PathID_36" transform="matrix(-0.420549, -1.17956, 1.50457, -5.37008e-008, 93.7, 69.65)" opacity="1">
</g>
<g id="PathID_37" transform="matrix(-0.420549, -1.17956, 1.50457, -5.37008e-008, 39.25, 69.7)" opacity="1">
<path style="fill:#162EAE;fill-opacity:1" d="M38.6 -6.45Q47.75 -6.5 53.85 -8.45L56 -9.2L56 18.25Q48.1 19.95 38.65 19.95L38.6 19.95Q19.2 19.95 -5.2 12.85Q-27.2 6.5 -42.55 6.5Q-51.1 6.55 -56 8.35L-56 -18.8L-42.55 -19.9Q-23.2 -19.85 2.1 -12.5Q23 -6.45 38.6 -6.45" />
</g>
<g id="PathID_38" transform="matrix(-0.420549, -1.17956, 1.50457, -5.37008e-008, 39.25, 69.7)" opacity="1">
</g>
<g id="PathID_39" transform="matrix(-0.42055, 1.17956, 1.50457, -5.37008e-008, 140.7, 69.65)" opacity="1">
<path style="fill:#FF7400;fill-opacity:1" d="M38.6 -6.45Q47.75 -6.5 53.85 -8.45L56 -9.2L56 18.25Q48.1 19.95 38.65 19.95L38.6 19.95Q19.2 19.95 -5.2 12.85Q-27.2 6.5 -42.55 6.5Q-51.1 6.55 -56 8.35L-56 -18.8L-42.55 -19.9Q-23.2 -19.85 2.1 -12.5Q23 -6.45 38.6 -6.45" />
</g>
<g id="PathID_40" transform="matrix(-0.42055, 1.17956, 1.50457, -5.37008e-008, 140.7, 69.65)" opacity="1">
</g>
<g id="PathID_41" transform="matrix(1.12985, 0, 0, 1.12985, 279.75, 135.05)" opacity="1">
<path style="fill:#FF9400;fill-opacity:1" d="M23.55 -31.75L18.35 -27.2Q15.65 -31 12.8 -31Q11.45 -31 10.55 -30.25Q9.7 -29.5 9.7 -28.6Q9.7 -27.65 10.3 -26.85Q11.15 -25.75 15.45 -22.1Q19.45 -18.75 20.3 -17.9Q22.4 -15.75 23.3 -13.75Q24.2 -11.8 24.2 -9.5Q24.2 -4.95 21.05 -2Q17.9 0.9 12.9 0.9Q8.95 0.9 6 -1Q3.1 -2.95 1.05 -7.05L6.9 -10.65Q9.55 -5.75 13 -5.75Q14.8 -5.75 16.05 -6.75Q17.3 -7.8 17.3 -9.2Q17.3 -10.45 16.35 -11.7Q15.45 -12.95 12.3 -15.5Q6.3 -20.4 4.55 -23.05Q2.8 -25.75 2.8 -28.4Q2.8 -32.2 5.7 -34.95Q8.6 -37.7 12.9 -37.7Q15.65 -37.7 18.1 -36.4Q20.6 -35.15 23.55 -31.75" />
</g>
<g id="PathID_42" transform="matrix(1.12985, 0, 0, 1.12985, 279.75, 135.05)" opacity="1">
</g>
<g id="PathID_43" transform="matrix(1.12985, 0, 0, 1.12985, 309.75, 135.05)" opacity="1">
<path style="fill:#FF9400;fill-opacity:1" d="M4.15 -36.8L11.25 -36.8L11.25 -22.95L23.55 -22.95L23.55 -36.8L30.65 -36.8L30.65 0L23.55 0L23.55 -16.15L11.25 -16.15L11.25 0L4.15 0L4.15 -36.8" />
</g>
<g id="PathID_44" transform="matrix(1.12985, 0, 0, 1.12985, 309.75, 135.05)" opacity="1">
</g>
<g id="PathID_45" transform="matrix(1.12985, 0, 0, 1.12985, 349.05, 135.05)" opacity="1">
<path style="fill:#FF9400;fill-opacity:1" d="M21.5 -37.7Q29.3 -37.7 34.9 -32.05Q40.55 -26.4 40.55 -18.25Q40.55 -10.2 35 -4.65Q29.45 0.9 21.55 0.9Q13.3 0.9 7.8 -4.8Q2.35 -10.5 2.35 -18.4Q2.35 -23.65 4.9 -28.05Q7.45 -32.5 11.9 -35.1Q16.35 -37.7 21.5 -37.7M21.4 -30.85Q16.3 -30.85 12.85 -27.3Q9.4 -23.75 9.4 -18.3Q9.4 -12.2 13.75 -8.65Q17.15 -5.9 21.55 -5.9Q26.5 -5.9 30 -9.45Q33.5 -13.05 33.5 -18.35Q33.5 -23.55 29.95 -27.2Q26.45 -30.85 21.4 -30.85" />
</g>
<g id="PathID_46" transform="matrix(1.12985, 0, 0, 1.12985, 349.05, 135.05)" opacity="1">
</g>
<g id="PathID_47" transform="matrix(1.12985, 0, 0, 1.12985, 397.6, 135.05)" opacity="1">
<path style="fill:#FF9400;fill-opacity:1" d="M4.15 -36.8L11.55 -36.8Q17.6 -36.8 20.25 -35.65Q22.95 -34.55 24.5 -32.05Q26.05 -29.55 26.05 -26.1Q26.05 -22.2 24 -19.65Q21.95 -17.1 18.5 -16.1Q16.45 -15.55 11.1 -15.55L11.1 0L4.15 0L4.15 -36.8M11.1 -22.4L13.3 -22.4Q15.95 -22.4 17 -22.75Q18.05 -23.15 18.65 -24Q19.25 -24.85 19.25 -26.1Q19.25 -28.2 17.55 -29.2Q16.35 -29.95 13.05 -29.95L11.1 -29.95L11.1 -22.4" />
</g>
<g id="PathID_48" transform="matrix(1.12985, 0, 0, 1.12985, 397.6, 135.05)" opacity="1">
</g>
</svg>
